<svg id="Capa_1" enable-background="new 0 0 512.721 512.721" height="512" viewBox="0 0 512.721 512.721" width="512" xmlns="http://www.w3.org/2000/svg"><g><path d="m220.576 292.145c-50.393-50.394-132.388-50.394-182.781 0-50.393 50.393-50.393 132.388 0 182.781 25.196 25.197 58.293 37.795 91.39 37.795s66.194-12.598 91.391-37.795c50.392-50.393 50.392-132.388 0-182.781z" fill="#a5e887"/><path d="m235.193 320.917-136.447 94.021-60.464 60.464c25.135 24.876 58.017 37.319 90.902 37.319 33.097 0 66.194-12.598 91.391-37.795 30.099-30.099 42.218-71.472 36.359-110.652z" fill="#00cc76"/><g><path d="m512.721 77.005c0-19.856-7.732-38.524-21.772-52.563l-2.668-2.669c-14.04-14.04-32.708-21.773-52.565-21.773-19.856 0-38.523 7.732-52.563 21.773l-84.176 84.175c-2.813 2.813-4.394 6.628-4.393 10.606 0 3.978 1.58 7.793 4.393 10.607l86.583 86.583c2.929 2.929 6.768 4.394 10.607 4.393 3.839 0 7.678-1.464 10.607-4.394l84.175-84.175c14.04-14.04 21.772-32.707 21.772-52.563z" fill="#47568c"/><path d="m384.563 214.741-86.583-86.583c-5.857-5.858-15.355-5.858-21.213 0l-132.296 132.297 89.243 35.728 126.349-35.729 24.5-24.5c2.813-2.813 4.394-6.628 4.394-10.606-.001-3.979-1.581-7.794-4.394-10.607z" fill="#d9f2ff"/><path d="m490.949 24.441-.853-.853-104.245 104.245-28.958 57.243 28.668 28.668c2.929 2.929 6.768 4.394 10.607 4.393 3.839 0 7.678-1.464 10.607-4.394l84.175-84.175c14.041-14.041 21.773-32.708 21.773-52.565-.002-19.855-7.734-38.522-21.774-52.562z" fill="#29376d"/><path d="m384.563 214.741-28.668-28.668-35.355 7.071-65.043 65.043-26.289 40.431 30.858 8.416 99.997-46.581 24.5-24.5c2.813-2.813 4.394-6.629 4.394-10.606-.001-3.978-1.581-7.793-4.394-10.606z" fill="#c4e1ff"/><path d="m360.062 260.455-211.016-4.575-21.003 21.003c-13.812 13.811-16.74 34.448-8.788 51.154l-20.404 20.404c-18.095 18.095-18.598 48.203-.405 66.198 8.996 8.898 20.764 13.348 32.532 13.348 11.848 0 23.695-4.51 32.714-13.529l20.992-20.991c16.707 7.952 37.344 5.023 51.154-8.788z" fill="#00cc76"/><path d="m98.755 414.929c8.956 8.7 20.587 13.058 32.223 13.058 11.848 0 23.695-4.51 32.714-13.529l20.992-20.991c16.707 7.952 37.344 5.023 51.154-8.788l124.224-124.224-104.566-2.267z" fill="#00aa95"/><path d="m450.038 213.235c5.859-5.858 5.858-15.355 0-21.213l-129.338-129.34c-5.857-5.858-15.354-5.858-21.213 0l-44.099 44.098c-2.813 2.813-4.394 6.628-4.394 10.606s1.581 7.793 4.394 10.606l129.34 129.339c2.813 2.813 6.628 4.394 10.606 4.394 3.979 0 7.794-1.581 10.607-4.393z" fill="#61729b"/><path d="m450.038 192.022-64.188-64.188-65.311 65.311 64.189 64.188c2.813 2.813 6.628 4.394 10.606 4.394 3.979 0 7.794-1.581 10.607-4.393l44.098-44.098c5.858-5.859 5.858-15.356-.001-21.214z" fill="#47568c"/></g></g></svg>