<svg id="Capa_1" enable-background="new 0 0 512 512" height="512" viewBox="0 0 512 512" width="512" xmlns="http://www.w3.org/2000/svg" xmlns:xlink="http://www.w3.org/1999/xlink"><linearGradient id="SVGID_1_" gradientUnits="userSpaceOnUse" x1="506.489" x2="-33.565" y1="111.273" y2="423.304"><stop offset=".0012" stop-color="#ffe783"/><stop offset="1" stop-color="#fff" stop-opacity="0"/></linearGradient><g><path d="m361.231 275.692c-56.758 0-102.769-46.011-102.769-102.769v-65.231c0-59.477-48.216-107.692-107.693-107.692-59.477 0-107.692 48.215-107.692 107.692v86.154c0 175.712 142.442 318.154 318.153 318.154 59.477 0 107.692-48.215 107.692-107.692v-20.923c.001-59.477-48.214-107.693-107.691-107.693z" fill="url(#SVGID_1_)"/><g><path d="m393.35 259.418v-179.318c0-5.19-4.21-9.4-9.4-9.4h-255.9c-5.19 0-9.4 4.21-9.4 9.4v59.215c-27.936 0-50.582 22.646-50.582 50.582s22.646 50.583 50.582 50.583v245.42c0 5.19 4.21 9.4 9.4 9.4h255.9c5.19 0 9.4-4.21 9.4-9.4v-125.318h.001c27.936 0 50.582-22.647 50.582-50.582 0-27.936-22.647-50.582-50.583-50.582z" fill="#590bb2" opacity=".1"/><path d="m90.067 70.386h-3v-3c0-2.762-2.239-5-5-5s-5 2.238-5 5v3h-3c-2.761 0-5 2.238-5 5s2.239 5 5 5h3v3c0 2.762 2.239 5 5 5s5-2.238 5-5v-3h3c2.761 0 5-2.238 5-5s-2.238-5-5-5z" fill="#c182f9"/><path d="m85.067 433.035h-3v-3c0-2.762-2.239-5-5-5s-5 2.238-5 5v3h-3c-2.761 0-5 2.238-5 5s2.239 5 5 5h3v3c0 2.762 2.239 5 5 5s5-2.238 5-5v-3h3c2.761 0 5-2.238 5-5s-2.238-5-5-5z" fill="#fdd250"/><path d="m435.933 209.35c-1.28 0-2.559-.488-3.536-1.465l-4.464-4.464-4.464 4.464c-1.953 1.953-5.118 1.953-7.071 0-1.953-1.952-1.953-5.118 0-7.07l8-8c1.953-1.953 5.118-1.953 7.071 0l8 8c1.953 1.952 1.953 5.118 0 7.07-.977.976-2.257 1.465-3.536 1.465z" fill="#ffa052"/><path d="m441.524 157.585c-1.28 0-2.559-.488-3.536-1.465l-4.464-4.464-4.464 4.464c-1.953 1.953-5.118 1.953-7.071 0-1.953-1.952-1.953-5.118 0-7.07l8-8c1.953-1.953 5.118-1.953 7.071 0l8 8c1.953 1.952 1.953 5.118 0 7.07-.977.977-2.256 1.465-3.536 1.465z" fill="#fdd250"/><path d="m94 395.395c-1.28 0-2.559-.488-3.536-1.465l-4.464-4.464-4.464 4.464c-1.953 1.953-5.118 1.953-7.071 0-1.953-1.952-1.953-5.118 0-7.07l8-8c1.953-1.953 5.118-1.953 7.071 0l8 8c1.953 1.952 1.953 5.118 0 7.07-.977.976-2.257 1.465-3.536 1.465z" fill="#fdd250"/><g><path d="m393.35 53.1v405.8c0 5.19-4.21 9.4-9.4 9.4h-255.9c-5.19 0-9.4-4.21-9.4-9.4v-405.8c0-5.19 4.21-9.4 9.4-9.4h255.9c5.19 0 9.4 4.21 9.4 9.4z" fill="#fff"/><path d="m393.35 53.1v303.9h-274.7v-303.9c0-5.19 4.21-9.4 9.4-9.4h255.9c5.19 0 9.4 4.21 9.4 9.4z" fill="#d6b0ff"/><path d="m169.23 179.45c0 27.94-22.64 50.59-50.58 50.59v-101.17c27.94 0 50.58 22.65 50.58 50.58z" fill="#cca1ff"/><path d="m393.35 248.97v101.17c-27.94 0-50.58-22.65-50.58-50.58 0-27.94 22.64-50.59 50.58-50.59z" fill="#cca1ff"/><path d="m357.77 328.27c0 9.98-1.44 19.62-4.12 28.73h-195.3c-2.68-9.11-4.12-18.75-4.12-28.73 0-56.2 45.57-101.77 101.77-101.77s101.77 45.57 101.77 101.77z" fill="#fdd250"/><path d="m393.35 92.532v-39.423c0-5.197-4.213-9.41-9.41-9.41h-255.881c-5.197 0-9.41 4.213-9.41 9.41v39.423z" fill="#ffa052"/><g><g><g><path d="m200.519 92.532 36.833-48.833h-109.298c-5.194 0-9.405 4.211-9.405 9.405v39.427h81.87z" fill="#c182f9"/><g><path d="m362.655 74.564h-113.255c-2.597 0-4.703-2.106-4.703-4.703s2.105-4.703 4.703-4.703h113.255c2.597 0 4.703 2.106 4.703 4.703s-2.105 4.703-4.703 4.703z" fill="#ffd5b8"/></g></g></g></g><g><g><g><g><path d="m333.259 425.035h-154.519c-2.762 0-5 2.239-5 5s2.238 5 5 5h154.52c2.762 0 5-2.239 5-5s-2.239-5-5.001-5z" fill="#cca1ff"/></g><g><path d="m215.176 405.533h-36.436c-2.762 0-5 2.239-5 5s2.238 5 5 5h36.436c2.762 0 5-2.239 5-5s-2.238-5-5-5z" fill="#cca1ff"/></g><g><path d="m239.215 405.533h75.668c2.761 0 5 2.239 5 5 0 2.761-2.239 5-5 5h-75.883c-2.924 0-5.261-2.51-4.976-5.492.247-2.6 2.579-4.508 5.191-4.508z" fill="#cca1ff"/></g></g></g><g fill="#cca1ff"><circle cx="196.728" cy="386.001" r="5"/><circle cx="180.478" cy="386.001" r="5"/></g></g></g><g fill="#fff"><path d="m268.5 329.696h-25c-2.761 0-5-2.239-5-5v-137.392c0-2.761 2.239-5 5-5h25c2.761 0 5 2.239 5 5v137.392c0 2.761-2.239 5-5 5z"/><circle cx="256" cy="142.5" r="21.629"/></g><g><circle cx="393.35" cy="283" fill="#ffa052" r="50.582"/><g fill="#fff"><path d="m389.861 297.446c-2.761 0-5-2.238-5-5 0-2.494.654-4.957 1.892-7.122 1.894-3.314 5.089-5.773 8.765-6.745 3.7-.978 6.284-4.339 6.284-8.173 0-2.303-.909-4.454-2.56-6.061-1.65-1.605-3.838-2.445-6.136-2.39-4.427.123-8.109 3.826-8.208 8.255-.061 2.723-2.287 4.889-4.997 4.889-.038 0-.075 0-.113-.001-2.761-.062-4.949-2.35-4.887-5.11.219-9.836 8.094-17.755 17.928-18.028 5.024-.147 9.784 1.715 13.386 5.218 3.603 3.505 5.587 8.203 5.587 13.229 0 8.368-5.645 15.704-13.728 17.841-1.103.292-2.065 1.035-2.639 2.039-.375.657-.574 1.403-.574 2.16 0 2.761-2.239 4.999-5 4.999z"/><path d="m389.861 314.047c-2.761 0-5-2.238-5-5s2.239-5.029 5-5.029 5 2.21 5 4.972v.058c0 2.761-2.239 4.999-5 4.999z"/></g></g><g><circle cx="118.65" cy="162.898" fill="#ffe783" r="50.582"/><g fill="#590bb2"><path d="m303.033 463.301h-174.979c-2.429 0-4.405-1.977-4.405-4.405v-187.262c0-2.762-2.239-5-5-5s-5 2.238-5 5v187.262c0 7.943 6.462 14.405 14.405 14.405h174.979c2.761 0 5-2.238 5-5s-2.239-5-5-5z"/><path d="m448.933 283c0-28.962-22.269-52.808-50.582-55.346v-174.55c0-7.943-6.462-14.405-14.405-14.405h-255.892c-7.943 0-14.405 6.462-14.405 14.405v54.447c-28.313 2.538-50.582 26.384-50.582 55.346s22.269 52.808 50.582 55.346v22.79c0 2.762 2.239 5 5 5s5-2.238 5-5v-22.79c28.313-2.537 50.583-26.384 50.583-55.346s-22.27-52.809-50.583-55.346v-54.447c0-2.429 1.976-4.405 4.405-4.405h255.891c2.429 0 4.405 1.977 4.405 4.405v174.549c-28.313 2.537-50.583 26.384-50.583 55.346s22.27 52.809 50.583 55.346v120.549c0 2.429-1.976 4.405-4.405 4.405h-50.312c-2.761 0-5 2.238-5 5s2.239 5 5 5h50.312c7.943 0 14.405-6.462 14.405-14.405v-120.55c28.313-2.536 50.583-26.382 50.583-55.344zm-284.701-120.103c0 25.134-20.448 45.582-45.582 45.582s-45.583-20.448-45.583-45.582 20.448-45.582 45.583-45.582c25.134 0 45.582 20.449 45.582 45.582zm229.118 165.685c-25.134 0-45.582-20.448-45.582-45.582s20.448-45.582 45.582-45.582 45.583 20.448 45.583 45.582-20.449 45.582-45.583 45.582z"/></g><g fill="#fff"><path d="m115.16 177.344c-2.761 0-5-2.238-5-5 0-2.494.654-4.957 1.892-7.122 1.894-3.314 5.089-5.773 8.765-6.745 3.7-.978 6.284-4.339 6.284-8.173 0-2.302-.909-4.454-2.56-6.061-1.649-1.604-3.836-2.444-6.136-2.39-4.427.123-8.109 3.826-8.208 8.255-.061 2.761-2.37 4.995-5.109 4.888-2.761-.062-4.949-2.35-4.888-5.11.218-9.836 8.093-17.755 17.928-18.028 5.029-.123 9.784 1.715 13.386 5.218 3.603 3.505 5.587 8.203 5.587 13.229 0 8.368-5.646 15.704-13.729 17.841-1.103.292-2.065 1.035-2.639 2.039-.375.657-.574 1.403-.574 2.16.001 2.76-2.238 4.999-4.999 4.999z"/><path d="m115.16 193.944c-2.761 0-5-2.238-5-5s2.239-5.028 5-5.028 5 2.209 5 4.971v.058c0 2.761-2.239 4.999-5 4.999z"/></g></g></g></g></svg>