<svg id="Capa_1" enable-background="new 0 0 512 512" height="512" viewBox="0 0 512 512" width="512" xmlns="http://www.w3.org/2000/svg" xmlns:xlink="http://www.w3.org/1999/xlink"><linearGradient id="SVGID_1_" gradientUnits="userSpaceOnUse" x1="0" x2="512" y1="256" y2="256"><stop offset="0" stop-color="#ffdbed" stop-opacity="0"/><stop offset="1" stop-color="#ffdbed"/></linearGradient><path d="m4.896 324.259c17.448 172.871 292.417 167.142 420.804 136.265 82.47-19.834 87.596-59.472 86.106-144.001-.96-54.486 3.443-198.725-32.004-244.123-54.448-69.733-103.228-25.998-170.656-3.235-86.488 29.197-120.189-22.932-202.476-21.38-120.641 2.278-110.779 187.252-101.774 276.474z" fill="url(#SVGID_1_)"/><path d="m399.213 117.356h-18.667c-2.761 0-5 2.239-5 5s2.239 5 5 5h6.595l-86.868 86.868v-6.596c0-2.761-2.239-5-5-5s-5 2.239-5 5v18.667c0 2.761 2.239 5 5 5h18.667c2.761 0 5-2.239 5-5s-2.239-5-5-5h-6.595l86.867-86.868v6.595c0 2.761 2.239 5 5 5s5-2.239 5-5v-18.667c.001-2.76-2.238-4.999-4.999-4.999z" fill="#6583fe" opacity=".2"/><path d="m269.167 284.167h-26.333c-2.761 0-5-2.239-5-5v-26.333c0-2.761 2.239-5 5-5h26.333c2.761 0 5 2.239 5 5v26.333c0 2.761-2.239 5-5 5z" fill="#6583fe" opacity=".2"/><path d="m449.151 104.183c2.761 0 5-2.239 5-5v-26.334c0-2.761-2.239-5-5-5h-26.333c-2.761 0-5 2.239-5 5v8.167h-143.651v-8.167c0-2.761-2.239-5-5-5h-26.333c-2.761 0-5 2.239-5 5v8.167h-143.651v-8.167c0-2.761-2.239-5-5-5h-26.334c-2.761 0-5 2.239-5 5v26.333c0 2.761 2.239 5 5 5h8.166v143.651h-8.166c-2.761 0-5 2.239-5 5v26.333c0 2.761 2.239 5 5 5h8.166v143.651h-8.166c-2.761 0-5 2.239-5 5v26.333c0 2.761 2.239 5 5 5h26.333c2.761 0 5-2.239 5-5v-8.167h143.651v8.167c0 2.761 2.239 5 5 5h26.333c2.761 0 5-2.239 5-5v-8.167h143.651v8.167c0 2.761 2.239 5 5 5h26.333c2.761 0 5-2.239 5-5v-26.333c0-2.761-2.239-5-5-5h-8.166v-143.65h8.166c2.761 0 5-2.239 5-5v-26.333c0-2.761-2.239-5-5-5h-8.166v-143.651zm-18.167 143.65h-8.167c-2.761 0-5 2.239-5 5v26.333c0 2.761 2.239 5 5 5h8.167v143.651h-8.167c-2.761 0-5 2.239-5 5v8.167h-143.65v-8.167c0-2.761-2.239-5-5-5h-26.333c-2.761 0-5 2.239-5 5v8.167h-143.651v-8.167c0-2.761-2.239-5-5-5h-8.167v-143.65h8.167c2.761 0 5-2.239 5-5v-26.333c0-2.761-2.239-5-5-5h-8.167v-143.651h8.167c2.761 0 5-2.239 5-5v-8.167h143.651v8.167c0 2.761 2.239 5 5 5h26.333c2.761 0 5-2.239 5-5v-8.167h143.651v8.167c0 2.761 2.239 5 5 5h8.167v143.65z" fill="#6583fe" opacity=".2"/><path d="m75.925 245.904h180.08v180.08h-180.08z" fill="#9fb0fe"/><circle cx="151.921" cy="351.714" fill="#ff7eb8" r="38.561"/><path d="m256.005 425.984v-76.964c-13.446-4.679-27.907-7.226-42.95-7.226-55.78 0-103.378 34.98-122.105 84.19z" fill="#01eca5"/><path d="m211.925 425.984h-136v-52.058c14.126-9.222 30.988-14.574 49.103-14.574 41.609 0 76.631 28.252 86.897 66.632z" fill="#97ffd2"/><g fill="#ff5ba8"><path d="m89.183 84.183h-26.334c-2.761 0-5-2.239-5-5v-26.334c0-2.761 2.239-5 5-5h26.333c2.761 0 5 2.239 5 5v26.333c.001 2.762-2.238 5.001-4.999 5.001z"/><path d="m269.167 84.183h-26.333c-2.761 0-5-2.239-5-5v-26.334c0-2.761 2.239-5 5-5h26.333c2.761 0 5 2.239 5 5v26.333c0 2.762-2.239 5.001-5 5.001z"/><path d="m449.151 84.183h-26.333c-2.761 0-5-2.239-5-5v-26.334c0-2.761 2.239-5 5-5h26.333c2.761 0 5 2.239 5 5v26.333c0 2.762-2.239 5.001-5 5.001z"/><path d="m89.183 444.151h-26.334c-2.761 0-5-2.239-5-5v-26.333c0-2.761 2.239-5 5-5h26.333c2.761 0 5 2.239 5 5v26.333c.001 2.761-2.238 5-4.999 5z"/><path d="m269.167 444.151h-26.333c-2.761 0-5-2.239-5-5v-26.333c0-2.761 2.239-5 5-5h26.333c2.761 0 5 2.239 5 5v26.333c0 2.761-2.239 5-5 5z"/><path d="m269.167 264.167h-26.333c-2.761 0-5-2.239-5-5v-26.333c0-2.761 2.239-5 5-5h26.333c2.761 0 5 2.239 5 5v26.333c0 2.761-2.239 5-5 5z"/><path d="m449.151 444.151h-26.333c-2.761 0-5-2.239-5-5v-26.333c0-2.761 2.239-5 5-5h26.333c2.761 0 5 2.239 5 5v26.333c0 2.761-2.239 5-5 5z"/><path d="m417.817 259.167v-26.333c0-2.761 2.239-5 5-5h26.333c2.761 0 5 2.239 5 5v26.333c0 2.761-2.239 5-5 5h-26.333c-2.761 0-5-2.239-5-5z"/><path d="m57.849 259.167v-26.333c0-2.761 2.239-5 5-5h26.333c2.761 0 5 2.239 5 5v26.333c0 2.761-2.239 5-5 5h-26.333c-2.761 0-5-2.239-5-5z"/></g><path d="m449.15 89.183c5.514 0 10-4.486 10-10v-26.333c0-5.514-4.486-10-10-10h-26.333c-5.514 0-10 4.486-10 10v8.167h-133.65v-8.167c0-5.514-4.486-10-10-10h-26.333c-5.514 0-10 4.486-10 10v8.167h-133.651v-8.167c0-5.514-4.486-10-10-10h-26.333c-5.514 0-10 4.486-10 10v26.333c0 5.514 4.486 10 10 10h8.167v133.651h-8.167c-5.514 0-10 4.486-10 10v26.333c0 5.514 4.486 10 10 10h8.167v103.5c0 2.761 2.239 5 5 5s5-2.239 5-5v-103.5h8.167c5.514 0 10-4.486 10-10v-26.333c0-5.514-4.486-10-10-10h-8.167v-133.651h8.167c5.514 0 10-4.486 10-10v-8.167h133.651v8.167c0 5.514 4.486 10 10 10h26.333c5.514 0 10-4.486 10-10v-8.167h133.651v8.167c0 5.514 4.486 10 10 10h8.167v133.651h-8.167c-5.514 0-10 4.486-10 10v26.333c0 5.514 4.486 10 10 10h8.167v133.651h-8.167c-5.514 0-10 4.486-10 10v8.167h-133.652v-8.167c0-5.514-4.486-10-10-10h-8.167v-133.651h8.167c5.514 0 10-4.486 10-10v-26.333c0-5.514-4.486-10-10-10h-26.333c-5.514 0-10 4.486-10 10v8.075h-104.959c-2.761 0-5 2.239-5 5s2.239 5 5 5h104.958v8.258c0 5.514 4.486 10 10 10h8.167v133.651h-8.167c-5.514 0-10 4.486-10 10v8.167h-133.65v-8.167c0-5.514-4.486-10-10-10h-26.333c-5.514 0-10 4.486-10 10v26.333c0 5.514 4.486 10 10 10h26.333c5.514 0 10-4.486 10-10v-8.167h133.651v8.167c0 5.514 4.486 10 10 10h26.333c5.514 0 10-4.486 10-10v-8.167h133.651v8.167c0 5.514 4.486 10 10 10h26.333c5.514 0 10-4.486 10-10v-26.333c0-5.514-4.486-10-10-10h-8.167v-133.651h8.167c5.514 0 10-4.486 10-10v-26.333c0-5.514-4.486-10-10-10h-8.167v-133.651zm-359.967 169.984-26.333.006v-26.339h26.333zm-26.333-179.984v-26.333h26.333l.006 26.333zm179.983 0v-26.333h26.333l.006 26.333zm0 153.65h26.333l.006 26.333h-26.339zm-179.983 206.317v-26.333h26.333l.006 26.333zm179.983 0v-26.333h26.333l.006 26.333zm206.324 0h-26.339v-26.333h26.333zm-.007-179.983-26.333.006v-26.339h26.333zm-26.333-206.317h26.333l.006 26.333h-26.339z" fill="#2626bc"/><path d="m295.273 182.628c-2.761 0-5 2.239-5 5v18.667c0 2.761 2.239 5 5 5h18.667c2.761 0 5-2.239 5-5s-2.239-5-5-5h-6.595l86.868-86.868v6.595c0 2.761 2.239 5 5 5s5-2.239 5-5v-18.667c0-2.761-2.239-5-5-5h-18.667c-2.761 0-5 2.239-5 5s2.239 5 5 5h6.595l-86.868 86.868v-6.596c0-2.76-2.238-4.999-5-4.999z" fill="#2626bc"/><path d="m394.194 385.052h-78.053c-2.762 0-5 2.239-5 5s2.238 5 5 5h78.053c2.762 0 5-2.239 5-5s-2.239-5-5-5z" fill="#6583fe" opacity=".2"/><path d="m369.12 349.453c2.762 0 5-2.239 5-5 0-3.646 2.967-6.613 6.613-6.613s6.613 2.967 6.613 6.613c0 2.761 2.238 5 5 5s5-2.239 5-5c0-4.518-1.818-8.615-4.755-11.613 2.936-2.998 4.755-7.095 4.755-11.613 0-9.161-7.453-16.613-16.613-16.613s-16.613 7.453-16.613 16.613c0 4.518 1.818 8.615 4.755 11.613-2.936 2.998-4.755 7.095-4.755 11.613 0 2.761 2.239 5 5 5zm11.614-34.84c3.646 0 6.613 2.967 6.613 6.613s-2.967 6.613-6.613 6.613-6.613-2.967-6.613-6.613 2.966-6.613 6.613-6.613z" fill="#6583fe" opacity=".2"/><path d="m394.213 353.641h-11.52c-2.762 0-5-2.239-5-5s2.238-5 5-5h11.52c2.762 0 5 2.239 5 5s-2.238 5-5 5z" fill="#2626bc"/><path d="m362.679 353.641h-46.52c-2.762 0-5-2.239-5-5s2.238-5 5-5h46.52c2.762 0 5 2.239 5 5s-2.238 5-5 5z" fill="#2626bc"/><path d="m394.213 374.974h-78.053c-2.762 0-5-2.239-5-5s2.238-5 5-5h78.053c2.762 0 5 2.239 5 5s-2.238 5-5 5z" fill="#2626bc"/><path d="m397.366 301.149c0-9.161-7.453-16.613-16.613-16.613s-16.613 7.453-16.613 16.613c0 4.518 1.818 8.615 4.755 11.613-2.936 2.998-4.755 7.095-4.755 11.613 0 2.761 2.238 5 5 5s5-2.239 5-5c0-3.646 2.967-6.613 6.613-6.613s6.613 2.967 6.613 6.613c0 2.761 2.238 5 5 5s5-2.239 5-5c0-4.518-1.818-8.615-4.755-11.613 2.937-2.998 4.755-7.095 4.755-11.613zm-16.613-6.614c3.646 0 6.613 2.967 6.613 6.613s-2.967 6.613-6.613 6.613-6.613-2.967-6.613-6.613 2.966-6.613 6.613-6.613z" fill="#2626bc"/><path d="m165.921 186.913c-1.28 0-2.559-.488-3.536-1.464-1.953-1.953-1.953-5.119 0-7.071l10-10c1.953-1.952 5.118-1.952 7.071 0 1.953 1.953 1.953 5.119 0 7.071l-10 10c-.976.975-2.255 1.464-3.535 1.464z" fill="#6583fe"/><path d="m131.694 144.693c-2.761 0-5-2.239-5-5 0-3.309-2.691-6-6-6-2.761 0-5-2.239-5-5s2.239-5 5-5c3.309 0 6-2.692 6-6 0-2.761 2.239-5 5-5s5 2.239 5 5c0 3.309 2.691 6 6 6 2.761 0 5 2.239 5 5s-2.239 5-5 5c-3.309 0-6 2.691-6 6 0 2.762-2.238 5-5 5z" fill="#ff7eb8"/><path d="m326.925 294.529c-1.28 0-2.559-.488-3.536-1.464-1.953-1.953-1.953-5.119 0-7.071l10-10c1.953-1.952 5.118-1.952 7.071 0 1.953 1.953 1.953 5.119 0 7.071l-10 10c-.976.976-2.255 1.464-3.535 1.464z" fill="#ff7eb8"/><path d="m385.079 45.755c-2.761 0-5-2.239-5-5 0-3.309-2.691-6-6-6-2.761 0-5-2.239-5-5s2.239-5 5-5c3.309 0 6-2.691 6-6 0-2.761 2.239-5 5-5s5 2.239 5 5c0 3.309 2.691 6 6 6 2.761 0 5 2.239 5 5s-2.239 5-5 5c-3.309 0-6 2.691-6 6 0 2.761-2.239 5-5 5z" fill="#01eca5"/><path d="m151.921 498.245c-2.761 0-5-2.239-5-5 0-3.309-2.691-6-6-6-2.761 0-5-2.239-5-5s2.239-5 5-5c3.309 0 6-2.691 6-6 0-2.761 2.239-5 5-5s5 2.239 5 5c0 3.309 2.691 6 6 6 2.761 0 5 2.239 5 5s-2.239 5-5 5c-3.309 0-6 2.691-6 6 0 2.761-2.239 5-5 5z" fill="#01eca5"/></svg>